<svg xmlns="http://www.w3.org/2000/svg" version="1.0" width="64.000000pt" height="64.000000pt" viewBox="0 0 64.000000 64.000000" preserveAspectRatio="xMidYMid meet">

<g transform="translate(0.000000,64.000000) scale(0.100000,-0.100000)" fill="#00A8C6" stroke="none">
<path d="M267 606 c-50 -14 -99 -53 -123 -98 -8 -15 -14 -54 -14 -87 0 -50 6 -71 40 -135 22 -41 40 -84 40 -96 0 -13 7 -20 19 -20 16 0 18 5 11 33 -4 17 -24 63 -45 100 -60 110 -49 198 35 254 37 26 124 32 163 12 71 -37 106 -108 87 -178 -10 -38 -110 -182 -130 -189 -6 -2 -10 19 -10 46 0 35 -9 66 -30 108 -16 32 -30 60 -30 62 0 1 18 2 40 2 39 0 39 0 33 -31 -8 -39 11 -37 35 4 16 27 16 29 -2 43 -25 18 -106 18 -131 1 -17 -13 -17 -17 13 -77 26 -51 32 -75 32 -127 l0 -64 62 3 c56 3 62 5 68 28 4 14 24 52 45 85 60 92 61 194 4 259 -53 60 -131 83 -212 62z" fill="#00A8C6"/>
<path d="M230 100 c0 -48 30 -73 90 -73 60 0 90 25 90 73 l0 40 -90 0 -90 0 0 -40z" fill="#00A8C6"/>
</g>
</svg>